<svg xmlns="http://www.w3.org/2000/svg" viewBox="0 0 122.88 122.88">
  <g fill="#fff">
    <path d="M61.44 0C27.5 0 0 27.5 0 61.44s27.5 61.44 61.44 61.44 61.44-27.5 61.44-61.44S95.38 0 61.44 0zm0 4.74c31.32 0 56.7 25.38 56.7 56.7s-25.38 56.7-56.7 56.7-56.7-25.38-56.7-56.7 25.38-56.7 56.7-56.7z"/>
    <circle cx="61.44" cy="61.44" r="11"/>
    <path d="M61.44 23.5c-4 0-7.7 1-11 2.85l13.5 23.4c.8-.25 1.6-.4 2.5-.4s1.7.15 2.5.4l13.5-23.4c-3.3-1.85-7-2.85-11-2.85-3.8 0-7.4.85-10.7 2.55l5.2 9c.55-.15 1.1-.2 1.7-.2-.3 0-.5 0-.7.05l-5.5-9.4z"/>
    <path d="M28.9 39.4c-2.85 4-4.65 8.85-5.05 14.1h27c.15-1.05.45-2.05.85-3l-22.8-11.1zM93.98 39.4l-22.8 11.1c.4.95.7 1.95.85 3h27c-.4-5.25-2.2-10.1-5.05-14.1zM37.5 71.85c1.55 4.4 4.6 8.1 8.5 10.4l13.5-23.4c-1.05-.85-1.9-1.9-2.5-3.1l-19.5 16.1zM85.38 71.85L65.88 55.75c-.6 1.2-1.45 2.25-2.5 3.1l13.5 23.4c3.9-2.3 6.95-6 8.5-10.4z"/>
  </g>
</svg>
